HIERARCHY
ROOT Hips
{
	OFFSET 0.00000 0.00000 0.00000
	CHANNELS 6 Xposition Yposition Zposition Zrotation Yrotation Xrotation 
	JOINT LHipJoint
	{
		OFFSET 0 0 0
		CHANNELS 3 Zrotation Yrotation Xrotation
		JOINT LeftUpLeg
		{
			OFFSET 1.32989 -1.57253 0.78074
			CHANNELS 3 Zrotation Yrotation Xrotation
			JOINT LeftLeg
			{
				OFFSET 2.24323 -6.16323 0.00000
				CHANNELS 3 Zrotation Yrotation Xrotation
				JOINT LeftFoot
				{
					OFFSET 2.32677 -6.39275 0.00000
					CHANNELS 3 Zrotation Yrotation Xrotation
					JOINT LeftToeBase
					{
						OFFSET 0.18686 -0.51340 1.95973
						CHANNELS 3 Zrotation Yrotation Xrotation
						End Site
						{
							OFFSET 0.00000 -0.00000 1.02033
						}
					}
				}
			}
		}
	}
	JOINT RHipJoint
	{
		OFFSET 0 0 0
		CHANNELS 3 Zrotation Yrotation Xrotation
		JOINT RightUpLeg
		{
			OFFSET -1.27392 -1.57253 0.78074
			CHANNELS 3 Zrotation Yrotation Xrotation
			JOINT RightLeg
			{
				OFFSET -2.19978 -6.04385 0.00000
				CHANNELS 3 Zrotation Yrotation Xrotation
				JOINT RightFoot
				{
					OFFSET -2.29380 -6.30216 0.00000
					CHANNELS 3 Zrotation Yrotation Xrotation
					JOINT RightToeBase
					{
						OFFSET -0.24624 -0.67655 1.94854
						CHANNELS 3 Zrotation Yrotation Xrotation
						End Site
						{
							OFFSET -0.00000 -0.00000 1.03267
						}
					}
				}
			}
		}
	}
	JOINT LowerBack
	{
		OFFSET 0 0 0
		CHANNELS 3 Zrotation Yrotation Xrotation
		JOINT Spine
		{
			OFFSET -0.05982 2.08655 0.02100
			CHANNELS 3 Zrotation Yrotation Xrotation
			JOINT Spine1
			{
				OFFSET 0.04735 2.08455 -0.01795
				CHANNELS 3 Zrotation Yrotation Xrotation
				JOINT Neck
				{
					OFFSET 0 0 0
					CHANNELS 3 Zrotation Yrotation Xrotation
					JOINT Neck1
					{
						OFFSET -0.10038 1.43781 0.03084
						CHANNELS 3 Zrotation Yrotation Xrotation
						JOINT Head
						{
							OFFSET 0.07701 1.43632 -0.18495
							CHANNELS 3 Zrotation Yrotation Xrotation
							End Site
							{
								OFFSET 0.02744 1.45633 -0.07361
							}
						}
					}
				}
				JOINT LeftShoulder
				{
					OFFSET 0 0 0
					CHANNELS 3 Zrotation Yrotation Xrotation
					JOINT LeftArm
					{
						OFFSET 2.75061 0.74389 0.25227
						CHANNELS 3 Zrotation Yrotation Xrotation
						JOINT LeftForeArm
						{
							OFFSET 4.36901 -0.00000 0.00000
							CHANNELS 3 Zrotation Yrotation Xrotation
							JOINT LeftHand
							{
								OFFSET 3.21737 -0.00000 -0.00000
								CHANNELS 3 Zrotation Yrotation Xrotation
								JOINT LeftFingerBase
								{
									OFFSET 0 0 0
									CHANNELS 3 Zrotation Yrotation Xrotation
									JOINT LeftHandIndex1
									{
										OFFSET 0.56431 -0.00000 0.00000
										CHANNELS 3 Zrotation Yrotation Xrotation
										End Site
										{
											OFFSET 0.45496 -0.00000 0.00000
										}
									}
								}
								JOINT LThumb
								{
									OFFSET 0 0 0
									CHANNELS 3 Zrotation Yrotation Xrotation
									End Site
									{
										OFFSET 0.46191 -0.00000 0.46191
									}
								}
							}
						}
					}
				}
				JOINT RightShoulder
				{
					OFFSET 0 0 0
					CHANNELS 3 Zrotation Yrotation Xrotation
					JOINT RightArm
					{
						OFFSET -2.97379 0.79094 0.48377
						CHANNELS 3 Zrotation Yrotation Xrotation
						JOINT RightForeArm
						{
							OFFSET -4.34118 -0.00000 -0.00000
							CHANNELS 3 Zrotation Yrotation Xrotation
							JOINT RightHand
							{
								OFFSET -3.09531 -0.00000 0.00000
								CHANNELS 3 Zrotation Yrotation Xrotation
								JOINT RightFingerBase
								{
									OFFSET 0 0 0
									CHANNELS 3 Zrotation Yrotation Xrotation
									JOINT RightHandIndex1
									{
										OFFSET -0.59745 -0.00000 0.00000
										CHANNELS 3 Zrotation Yrotation Xrotation
										End Site
										{
											OFFSET -0.48168 -0.00000 0.00000
										}
									}
								}
								JOINT RThumb
								{
									OFFSET 0 0 0
									CHANNELS 3 Zrotation Yrotation Xrotation
									End Site
									{
										OFFSET -0.48903 -0.00000 0.48903
									}
								}
							}
						}
					}
				}
			}
		}
	}
}
MOTION
Frames: 13
Frame Time: 0.0166666
12.2293 15.5147 11.2071 119.9310 160.2050 -82.1474 0.0000 0.0000 0.0000 60.2737 -6.6957 -49.8675 3.7279 11.7892 34.9904 4.2620 32.7011 -58.5578 2.7767 10.3244 30.0339 0.0000 0.0000 0.0000 22.0007 2.5335 11.6703 0.0000 -0.0000 0.0000 5.8514 -43.0379 4.2147 -2.8680 -10.4782 30.5395 -16.9002 0.4750 17.6772 -1.9453 -3.2450 -1.7016 8.2168 -0.5338 -11.2001 -7.0627 -0.0403 -20.8501 13.0635 1.0959 -2.3646 5.3293 1.2118 2.5269 0.0000 -0.0000 0.0000 1.0933 -16.8275 -49.4719 34.9063 -44.7451 -14.7473 -0.0000 0.0000 -42.1409 103.9260 -44.6219 -109.4431 -7.1250 0.0000 -0.0000 162.8790 -46.8943 -179.1762 0.0000 -0.0000 0.0000 13.2486 -20.1003 -24.6121 -20.8275 31.6265 -5.9592 0.0000 -0.0000 -11.6072 -45.4673 30.6176 -27.3698 7.1250 -0.0000 -0.0000 -7.7895 9.8518 -9.0846
12.1441 15.1336 9.9711 121.1680 168.8970 -88.2472 0.0000 0.0000 0.0000 39.8288 13.1199 -65.0484 5.6953 14.1264 43.7461 0.4919 17.6404 -28.8631 0.0887 1.9206 5.2862 0.0000 0.0000 0.0000 24.2086 0.0280 9.8432 0.0000 -0.0000 0.0000 2.4095 -36.0221 13.4299 -1.2052 -6.9649 19.6115 -17.7912 -0.1015 20.0348 -1.0703 -4.4731 -0.9504 10.1462 -1.0372 -11.2008 -6.3753 -0.8645 -19.6448 13.8826 -0.4528 -1.5680 5.3414 0.4001 2.7659 0.0000 -0.0000 0.0000 -0.9776 -15.3083 -48.8566 23.4734 -34.6024 -7.4054 -0.0000 0.0000 -40.2999 95.9492 -47.7597 -98.0122 -7.1250 0.0000 -0.0000 161.6861 -54.7591 -175.4971 0.0000 -0.0000 0.0000 19.7819 -24.0441 -20.3081 -20.7491 31.5343 -5.9182 0.0000 -0.0000 -15.4579 -38.9442 29.3595 -21.6153 7.1250 -0.0000 -0.0000 -4.5617 5.7963 -5.0143
12.0495 14.6682 8.7967 123.9070 177.1740 -94.9972 0.0000 0.0000 0.0000 30.2360 12.7733 -68.9575 7.9764 16.1019 52.4778 2.6375 10.2262 -35.6028 0.0023 0.3116 0.8561 0.0000 0.0000 0.0000 26.4233 -5.1668 7.7664 0.0000 0.0000 -0.0000 0.5938 -26.6679 14.9628 -0.8467 -5.8689 16.4046 -18.7605 -1.1050 22.7189 0.5756 -6.3206 -0.5963 12.6198 -1.8805 -10.8152 -5.9078 -1.3254 -19.9184 15.2755 -1.5887 0.8858 5.6395 -0.0394 3.7034 -0.0000 -0.0000 0.0000 -3.1681 -12.7058 -48.5809 14.9295 -24.0478 -3.1972 -0.0000 0.0000 -36.2187 76.8105 51.2363 73.2715 -7.1250 0.0000 -0.0000 157.8567 -69.7832 -166.6488 -0.0000 -0.0000 0.0000 23.8633 -25.1391 -24.2943 -19.2758 29.7599 -5.1670 0.0000 -0.0000 -13.1265 -39.6047 27.8510 -21.1337 7.1250 -0.0000 -0.0000 -5.2947 4.3311 -5.7031
11.9145 14.3091 7.7905 127.7420 184.5040 -100.5350 0.0000 0.0000 0.0000 21.9024 10.5111 -72.7794 10.3599 17.6073 60.6847 3.9812 11.3949 -42.7114 0.0073 -0.5502 -1.5120 0.0000 0.0000 0.0000 29.1979 -9.0614 1.9226 -0.0531 -1.4873 4.0907 -0.1476 -20.1672 15.3799 -1.2917 -7.2012 20.3128 -20.1264 -1.7682 23.3145 1.6631 -7.4644 0.0668 14.8007 -2.5178 -9.6735 -5.1753 -1.9019 -18.4523 16.5714 -2.6858 0.3604 5.8138 -0.6336 3.4734 -0.0000 0.0000 0.0000 -6.3235 -9.5733 -42.6230 13.9872 -22.7164 -2.8232 -0.0000 0.0000 -39.7394 71.9177 57.5654 68.8507 -7.1250 0.0000 -0.0000 171.3614 -71.0835 -174.6158 -0.0000 0.0000 0.0000 28.5327 -27.2123 -33.8132 -17.5902 27.6293 -4.3575 0.0000 -0.0000 -15.2278 -41.8241 25.2564 -20.8973 7.1250 -0.0000 -0.0000 -7.1729 2.1325 -7.4929
11.7817 14.1163 6.8489 128.7040 191.4370 -105.4770 0.0000 0.0000 0.0000 18.1537 11.2693 -75.1084 13.5605 18.9753 70.8576 4.5072 6.0978 -42.4920 0.0296 1.1097 3.0507 0.0000 0.0000 0.0000 31.3048 -5.9954 -4.1721 -0.6051 -4.9793 13.8495 -0.4458 -11.1360 13.2828 -0.4435 -4.2729 11.8456 -20.9368 -1.2190 21.7825 1.1669 -6.5479 1.1662 14.2175 -2.3801 -7.9795 -4.9694 -2.4859 -17.1393 18.1616 -3.6017 -0.4672 6.1977 -1.1491 3.1811 0.0000 0.0000 0.0000 -6.7351 -6.8199 -32.5894 15.5801 -24.9480 -3.4669 -0.0000 0.0000 -42.5421 66.3890 62.5833 63.7832 -7.1250 0.0000 -0.0000 -176.4894 -71.7416 177.7652 0.0000 0.0000 0.0000 35.3754 -29.0968 -46.3690 -16.0283 25.5590 -3.6581 0.0000 -0.0000 -14.2843 -42.4964 18.0250 -15.8284 7.1250 -0.0000 -0.0000 -9.1681 -6.4198 -8.1937
11.6809 14.0775 6.0131 127.6830 197.3790 -109.2990 0.0000 0.0000 0.0000 15.8917 15.4485 -77.0236 16.2896 19.6667 79.0935 3.6413 3.8585 -37.5706 0.0321 -1.1565 -3.1794 0.0000 0.0000 0.0000 33.3002 -5.3898 -6.7447 -1.1048 -6.6785 18.7664 -0.4733 -7.2625 12.5074 -0.3794 -3.9557 10.9520 -19.9135 -0.7902 19.1444 0.0792 -5.1660 2.1208 12.6109 -1.9808 -6.5967 -5.8926 -2.6991 -15.8325 19.2124 -3.8519 -0.0183 6.6754 -1.2772 3.1941 -0.0000 0.0000 0.0000 -6.8014 -6.5273 -31.0221 17.3480 -27.3142 -4.2458 -0.0000 0.0000 -39.5128 68.8526 59.5611 65.8363 -7.1250 0.0000 -0.0000 176.3971 -71.9725 -177.6881 -0.0000 0.0000 0.0000 39.4259 -28.9904 -52.5135 -14.7127 23.7443 -3.1093 0.0000 -0.0000 -12.3761 -43.8946 13.8732 -12.9907 7.1250 -0.0000 -0.0000 -10.8926 -11.3206 -8.7053
11.6331 14.1522 5.2807 127.1300 202.9180 -112.3150 0.0000 0.0000 0.0000 13.9177 18.3748 -76.3626 17.2747 19.8210 82.0089 3.0925 3.0179 -34.4181 0.1100 -2.1384 -5.8884 0.0000 0.0000 0.0000 34.2252 -4.9551 -7.1827 -1.4448 -7.5987 21.5016 -0.2913 -9.2794 10.8307 -0.0559 -1.5256 4.1962 -18.1475 -1.1878 16.7710 -0.3691 -4.8844 2.0464 10.8548 -1.9999 -5.6795 -6.9474 -2.4685 -15.5383 18.6481 -3.5409 2.0844 6.7172 -1.0418 3.7227 0.0000 -0.0000 0.0000 -7.7266 -5.1167 -31.4910 17.9990 -28.1558 -4.5488 -0.0000 0.0000 -33.0480 63.3359 58.1193 59.4011 -7.1250 0.0000 -0.0000 175.6102 -75.5909 -176.8393 0.0000 -0.0000 0.0000 39.4899 -26.9259 -50.6998 -15.3150 24.5830 -3.3559 0.0000 -0.0000 -14.6086 -43.0813 14.1599 -12.8858 7.1250 -0.0000 -0.0000 -10.3174 -11.1592 -8.2641
11.6264 14.3597 4.6362 128.3600 208.9200 -115.2740 0.0000 0.0000 0.0000 9.9958 19.1746 -74.1372 16.8229 19.7562 80.6744 2.7849 4.0718 -33.1654 0.0678 -1.6799 -4.6217 0.0000 0.0000 0.0000 33.1295 -3.0311 -6.9343 -1.6996 -8.2101 23.3540 -0.3492 -9.2530 11.5374 -0.0002 -0.0921 0.2530 -17.4977 -1.9047 14.9910 -0.7986 -5.4454 1.4278 9.9733 -2.2896 -5.3244 -7.2179 -2.2043 -15.3155 16.9073 -3.1465 3.7056 6.2431 -0.8527 4.0614 0.0000 0.0000 0.0000 -9.4854 -2.9668 -31.1503 18.5547 -28.8616 -4.8140 -0.0000 0.0000 -33.8401 61.3878 57.6546 57.1505 -7.1250 0.0000 -0.0000 175.6411 -76.8679 -176.7442 0.0000 0.0000 0.0000 36.6151 -24.2691 -44.1516 -16.4876 26.1773 -3.8585 0.0000 -0.0000 -15.7347 -44.5354 19.5216 -18.2002 7.1250 -0.0000 -0.0000 -10.0795 -3.8833 -9.5250
11.6520 14.6626 4.0157 129.6310 213.9220 -118.0060 0.0000 0.0000 0.0000 7.1699 19.5637 -71.2907 15.6970 19.5502 77.3277 2.2463 5.6932 -30.7874 0.0479 -1.4130 -3.8861 0.0000 0.0000 0.0000 32.8729 -1.7765 -6.6908 -1.8722 -8.5945 24.5350 -0.1563 -9.2788 9.0097 -0.1767 2.7080 -7.4668 -16.6094 -2.5021 13.6145 -0.8993 -5.8978 0.7789 9.3402 -2.5040 -5.2474 -6.8261 -1.8456 -15.0939 15.3571 -2.7132 4.9758 5.7211 -0.6633 4.3039 -0.0000 -0.0000 0.0000 -10.1075 -0.9862 -30.8682 18.5958 -28.9133 -4.8338 -0.0000 0.0000 -35.3943 59.9164 58.3882 55.7752 -7.1250 0.0000 -0.0000 178.7490 -77.1647 -179.0582 -0.0000 -0.0000 0.0000 32.7691 -21.2491 -38.5693 -17.9212 28.0562 -4.5121 0.0000 -0.0000 -15.9871 -45.4476 22.1434 -20.9499 7.1250 -0.0000 -0.0000 -10.0059 -0.2648 -10.1153
11.7034 15.0262 3.4620 129.4120 219.1840 -120.2830 0.0000 0.0000 0.0000 5.5652 20.9025 -66.8114 14.3731 19.2233 73.3408 1.4874 7.6016 -26.8939 0.0690 -1.6946 -4.6623 0.0000 0.0000 0.0000 32.8184 -2.7989 -6.1616 -2.0106 -8.8881 25.4459 -0.0395 -9.6211 7.4100 -0.6230 5.0509 -14.0538 -15.6833 -2.2490 12.5892 -0.9651 -5.2880 0.4623 8.6118 -2.2179 -5.2793 -7.5046 -1.6083 -14.7204 15.2203 -2.3589 6.0591 5.8362 -0.4863 4.5295 -0.0000 0.0000 0.0000 -9.9705 -0.1522 -29.8076 18.9881 -29.4039 -5.0250 -0.0000 0.0000 -36.0234 60.9643 57.4532 56.6333 -7.1250 0.0000 -0.0000 175.3900 -77.2050 -176.5241 -0.0000 0.0000 0.0000 28.9532 -18.4365 -35.0131 -19.1989 29.6650 -5.1289 0.0000 -0.0000 -16.7851 -46.8951 24.0505 -23.5300 7.1250 -0.0000 -0.0000 -10.3598 2.6909 -11.0130
11.7546 15.4550 2.9496 129.5490 224.4720 -122.8820 0.0000 0.0000 0.0000 4.3457 21.9868 -61.9818 13.1166 18.8238 69.4871 0.5261 9.7878 -20.5659 0.2383 -3.1414 -8.6728 0.0000 0.0000 0.0000 32.7946 -4.4244 -5.4688 -2.1169 -9.1054 26.1255 -0.0761 -10.6086 8.5814 -0.7180 5.4147 -15.0953 -14.7054 -1.7002 11.6989 -1.4016 -4.3128 0.5005 7.4107 -1.7968 -5.0934 -7.3910 -1.4076 -14.2415 14.2510 -2.1406 7.3648 5.5354 -0.4084 4.7976 -0.0000 -0.0000 0.0000 -9.4091 -0.5922 -29.3843 20.5418 -31.2896 -5.8101 -0.0000 0.0000 -35.3300 58.5505 55.6500 53.4698 -7.1250 0.0000 -0.0000 171.6406 -79.5674 -173.2860 -0.0000 -0.0000 0.0000 25.9063 -16.4584 -32.7169 -20.4248 31.1508 -5.7495 0.0000 -0.0000 -17.2458 -46.4726 24.9465 -23.9427 7.1250 -0.0000 -0.0000 -9.8903 3.6082 -10.6490
11.7957 15.8712 2.4418 131.4980 229.0070 -126.0140 0.0000 0.0000 0.0000 3.7553 21.2610 -58.0570 12.0815 18.4249 66.2468 -0.1585 10.9661 -12.9564 0.3005 -3.5247 -9.7431 0.0000 0.0000 0.0000 33.0244 -5.0439 -5.0596 -2.1470 -9.1659 26.3155 -0.0345 -13.4660 9.8725 -0.5147 4.5986 -12.7670 -13.7387 -1.4790 10.5236 -1.8448 -3.7332 0.5286 6.2589 -1.5825 -4.6256 -7.2147 -1.3464 -14.5014 12.8214 -2.0805 9.3897 5.0801 -0.4039 5.4276 0.0000 -0.0000 0.0000 -8.3682 -0.9425 -27.7499 23.0960 -34.1936 -7.1922 -0.0000 0.0000 -34.7954 52.0035 53.0373 45.6468 -7.1250 0.0000 -0.0000 167.0267 -84.7627 -168.2535 0.0000 -0.0000 0.0000 22.7977 -14.4615 -32.4104 -21.5784 32.4973 -6.3579 0.0000 -0.0000 -16.9155 -46.7146 25.4669 -24.5380 7.1250 -0.0000 -0.0000 -9.8899 4.3468 -10.7676
11.8404 16.1726 1.9669 135.8780 232.7200 -130.8040 0.0000 0.0000 0.0000 2.9734 18.5509 -53.9526 10.9481 17.9096 62.6129 -0.2438 9.6048 -7.8329 0.2019 -2.8935 -7.9825 0.0000 0.0000 0.0000 32.6340 -4.1637 -4.1308 -2.0731 -9.0167 25.8474 0.5719 -20.2778 9.0152 -0.0245 1.0108 -2.7785 -12.4976 -1.4042 9.4582 -2.0938 -3.3475 0.4586 5.2137 -1.4455 -4.2626 -7.4422 -1.4564 -14.5705 10.8654 -2.0260 11.1021 4.5135 -0.4890 5.9380 0.0000 -0.0000 0.0000 -7.7825 -1.8364 -25.8694 26.0945 -37.3019 -8.9449 -0.0000 0.0000 -32.7194 47.7652 50.5280 40.3741 -7.1250 0.0000 -0.0000 134.0355 -88.5630 -135.0777 0.0000 -0.0000 0.0000 18.9464 -14.1032 -32.7170 -23.4221 34.5472 -7.3763 0.0000 -0.0000 -17.7008 -48.2081 24.9385 -25.2541 7.1250 -0.0000 -0.0000 -10.8631 4.3717 -11.8681
